<svg width="20" height="20" viewBox="0 0 20 20" fill="none" xmlns="http://www.w3.org/2000/svg">
<path d="M18.1 6.76471H1.9C1.66131 6.76471 1.43239 6.67174 1.2636 6.50627C1.09482 6.3408 1 6.11637 1 5.88235C1 5.64834 1.09482 5.42391 1.2636 5.25844C1.43239 5.09296 1.66131 5 1.9 5H18.1C18.3387 5 18.5676 5.09296 18.7364 5.25844C18.9052 5.42391 19 5.64834 19 5.88235C19 6.11637 18.9052 6.3408 18.7364 6.50627C18.5676 6.67174 18.3387 6.76471 18.1 6.76471ZM15.1 10.8824H4.9C4.66131 10.8824 4.43239 10.7894 4.2636 10.6239C4.09482 10.4584 4 10.234 4 10C4 9.76599 4.09482 9.54156 4.2636 9.37608C4.43239 9.21061 4.66131 9.11765 4.9 9.11765H15.1C15.3387 9.11765 15.5676 9.21061 15.7364 9.37608C15.9052 9.54156 16 9.76599 16 10C16 10.234 15.9052 10.4584 15.7364 10.6239C15.5676 10.7894 15.3387 10.8824 15.1 10.8824ZM11.5 15H8.5C8.26131 15 8.03239 14.907 7.8636 14.7416C7.69482 14.5761 7.6 14.3517 7.6 14.1176C7.6 13.8836 7.69482 13.6592 7.8636 13.4937C8.03239 13.3283 8.26131 13.2353 8.5 13.2353H11.5C11.7387 13.2353 11.9676 13.3283 12.1364 13.4937C12.3052 13.6592 12.4 13.8836 12.4 14.1176C12.4 14.3517 12.3052 14.5761 12.1364 14.7416C11.9676 14.907 11.7387 15 11.5 15Z" fill="#0055CC"/>
</svg>
