<svg width="40" height="40" viewBox="0 0 40 40" fill="none" xmlns="http://www.w3.org/2000/svg">
<rect width="40" height="40" rx="20" fill="#FCA130" fill-opacity="0.15"/>
<path d="M11 13C9.90065 13 9 13.9006 9 15V25C9 26.0993 9.90065 27 11 27H29C30.0993 27 31 26.0993 31 25V15C31 13.9006 30.0993 13 29 13H11ZM11 14H29C29.5626 14 30 14.4373 30 15V25C30 25.5626 29.5626 26 29 26H11C10.4373 26 10 25.5626 10 25V15C10 14.4373 10.4373 14 11 14ZM21 16.75C20.7238 16.75 20.5 16.9738 20.5 17.25C20.5 17.5261 20.7238 17.75 21 17.75H28C28.2761 17.75 28.5 17.5261 28.5 17.25C28.5 16.9738 28.2761 16.75 28 16.75H21ZM21 19.5C20.7238 19.5 20.5 19.7238 20.5 20C20.5 20.2761 20.7238 20.5 21 20.5H28C28.2761 20.5 28.5 20.2761 28.5 20C28.5 19.7238 28.2761 19.5 28 19.5H21ZM21 22.25C20.7238 22.25 20.5 22.4739 20.5 22.75C20.5 23.0262 20.7238 23.25 21 23.25H28C28.2761 23.25 28.5 23.0262 28.5 22.75C28.5 22.4739 28.2761 22.25 28 22.25H21Z" fill="#FCA130"/>
<path d="M15.2498 16.25C14.2892 16.25 13.4998 17.0394 13.4998 18C13.4998 18.9606 14.2892 19.75 15.2498 19.75C16.2103 19.75 16.9998 18.9606 16.9998 18C16.9998 17.0394 16.2103 16.25 15.2498 16.25ZM15.2498 17.25C15.6699 17.25 15.9998 17.5799 15.9998 18C15.9998 18.4201 15.6699 18.75 15.2498 18.75C14.8296 18.75 14.4998 18.4201 14.4998 18C14.4998 17.5799 14.8296 17.25 15.2498 17.25ZM15.2498 20.25C14.2611 20.25 13.3632 20.5033 12.6795 20.9453C11.9957 21.3873 11.4998 22.0498 11.4998 22.8281V23.25C11.4998 23.3826 11.5525 23.5098 11.6462 23.6035C11.74 23.6973 11.8672 23.75 11.9998 23.75H18.4998C18.6324 23.75 18.7595 23.6973 18.8533 23.6035C18.9471 23.5098 18.9997 23.3826 18.9998 23.25V22.8281C18.9998 22.0498 18.5038 21.3873 17.8201 20.9453C17.1364 20.5033 16.2384 20.25 15.2498 20.25ZM15.2498 21.25C16.0616 21.25 16.7899 21.4715 17.281 21.789C17.7365 22.0835 17.9452 22.422 17.9763 22.75H12.5232C12.5544 22.422 12.7631 22.0835 13.2185 21.789C13.7096 21.4715 14.4379 21.25 15.2498 21.25Z" fill="#FCA130"/>
</svg>
