<svg width="24" height="24" viewBox="0 0 24 24" fill="none" xmlns="http://www.w3.org/2000/svg">
<path d="M18.4286 13.2857V12C18.4286 11.659 18.2931 11.332 18.052 11.0909C17.8109 10.8497 17.4838 10.7143 17.1429 10.7143H4.28571C3.94472 10.7143 3.6177 10.8497 3.37658 11.0909C3.13546 11.332 3 11.659 3 12V19.7143C3 20.0553 3.13546 20.3823 3.37658 20.6234C3.6177 20.8645 3.94472 21 4.28571 21H17.1429C17.4838 21 17.8109 20.8645 18.052 20.6234C18.2931 20.3823 18.4286 20.0553 18.4286 19.7143V18.4286M18.4286 13.2857H13.2857C12.6037 13.2857 11.9497 13.5566 11.4674 14.0389C10.9852 14.5211 10.7143 15.1752 10.7143 15.8571C10.7143 16.5391 10.9852 17.1932 11.4674 17.6754C11.9497 18.1577 12.6037 18.4286 13.2857 18.4286H18.4286M18.4286 13.2857C19.1106 13.2857 19.7646 13.5566 20.2468 14.0389C20.7291 14.5211 21 15.1752 21 15.8571C21 16.5391 20.7291 17.1932 20.2468 17.6754C19.7646 18.1577 19.1106 18.4286 18.4286 18.4286M6.85714 10.7143V6.85714C6.85714 5.83416 7.26352 4.85309 7.98687 4.12973C8.71023 3.40638 9.69131 3 10.7143 3C11.7373 3 12.7183 3.40638 13.4417 4.12973C14.1651 4.85309 14.5714 5.83416 14.5714 6.85714V10.7143M17.7857 15.8571H19.0714M15.2143 15.8571H16.5M12.6429 15.8571H13.9286" stroke="#22262B" stroke-width="1.5"/>
</svg>
