<svg width="720" height="804" viewBox="0 0 720 804" fill="none" xmlns="http://www.w3.org/2000/svg">
<g clip-path="url(#clip0_1304_984)">
<rect width="720" height="804" fill="#002A64"/>
<circle cx="99" cy="-4" r="47" stroke="white" stroke-width="4"/>
<circle cx="99" cy="-4" r="26" fill="#0055CC"/>
<mask id="path-3-outside-1_1304_984" maskUnits="userSpaceOnUse" x="548" y="47" width="40" height="40" fill="black">
<rect fill="white" x="548" y="47" width="40" height="40"/>
<path d="M586 67C586 70.5601 584.944 74.0402 582.966 77.0003C580.989 79.9603 578.177 82.2675 574.888 83.6298C571.599 84.9922 567.98 85.3487 564.488 84.6541C560.997 83.9596 557.789 82.2453 555.272 79.7279C552.755 77.2106 551.04 74.0033 550.346 70.5116C549.651 67.02 550.008 63.4008 551.37 60.1117C552.733 56.8226 555.04 54.0114 558 52.0335C560.96 50.0557 564.44 49 568 49L568 67H586Z"/>
</mask>
<path d="M586 67C586 70.5601 584.944 74.0402 582.966 77.0003C580.989 79.9603 578.177 82.2675 574.888 83.6298C571.599 84.9922 567.98 85.3487 564.488 84.6541C560.997 83.9596 557.789 82.2453 555.272 79.7279C552.755 77.2106 551.04 74.0033 550.346 70.5116C549.651 67.02 550.008 63.4008 551.37 60.1117C552.733 56.8226 555.04 54.0114 558 52.0335C560.96 50.0557 564.44 49 568 49L568 67H586Z" fill="#002A64"/>
<path d="M586 67C586 70.5601 584.944 74.0402 582.966 77.0003C580.989 79.9603 578.177 82.2675 574.888 83.6298C571.599 84.9922 567.98 85.3487 564.488 84.6541C560.997 83.9596 557.789 82.2453 555.272 79.7279C552.755 77.2106 551.04 74.0033 550.346 70.5116C549.651 67.02 550.008 63.4008 551.37 60.1117C552.733 56.8226 555.04 54.0114 558 52.0335C560.96 50.0557 564.44 49 568 49L568 67H586Z" stroke="white" stroke-width="4" mask="url(#path-3-outside-1_1304_984)"/>
<circle cx="568" cy="67" r="18" fill="#002A64"/>
<circle cx="567.999" cy="66.9993" r="7.2766" fill="#0055CC"/>
<circle cx="52.5" cy="82.5" r="2.5" fill="white"/>
<circle cx="72.5" cy="82.5" r="2.5" fill="white"/>
<circle cx="92.5" cy="82.5" r="2.5" fill="white"/>
<circle cx="112.5" cy="82.5" r="2.5" fill="white"/>
<circle cx="132.5" cy="82.5" r="2.5" fill="white"/>
<circle cx="152.5" cy="82.5" r="2.5" fill="white"/>
<circle cx="52.5" cy="102.5" r="2.5" fill="white"/>
<circle cx="72.5" cy="102.5" r="2.5" fill="white"/>
<circle cx="92.5" cy="102.5" r="2.5" fill="white"/>
<circle cx="112.5" cy="102.5" r="2.5" fill="white"/>
<circle cx="132.5" cy="102.5" r="2.5" fill="white"/>
<circle cx="152.5" cy="102.5" r="2.5" fill="white"/>
<circle cx="52.5" cy="122.5" r="2.5" fill="white"/>
<circle cx="72.5" cy="122.5" r="2.5" fill="white"/>
<circle cx="92.5" cy="122.5" r="2.5" fill="white"/>
<circle cx="112.5" cy="122.5" r="2.5" fill="white"/>
<circle cx="132.5" cy="122.5" r="2.5" fill="white"/>
<circle cx="152.5" cy="122.5" r="2.5" fill="white"/>
<circle cx="52.5" cy="142.5" r="2.5" fill="white"/>
<circle cx="72.5" cy="142.5" r="2.5" fill="white"/>
<circle cx="92.5" cy="142.5" r="2.5" fill="white"/>
<circle cx="112.5" cy="142.5" r="2.5" fill="white"/>
<circle cx="132.5" cy="142.5" r="2.5" fill="white"/>
<circle cx="152.5" cy="142.5" r="2.5" fill="white"/>
<circle cx="51.5" cy="701.5" r="2.5" fill="white"/>
<circle cx="71.5" cy="701.5" r="2.5" fill="white"/>
<circle cx="91.5" cy="701.5" r="2.5" fill="white"/>
<circle cx="111.5" cy="701.5" r="2.5" fill="white"/>
<circle cx="131.5" cy="701.5" r="2.5" fill="white"/>
<circle cx="151.5" cy="701.5" r="2.5" fill="white"/>
<circle cx="51.5" cy="721.5" r="2.5" fill="white"/>
<circle cx="71.5" cy="721.5" r="2.5" fill="white"/>
<circle cx="91.5" cy="721.5" r="2.5" fill="white"/>
<circle cx="111.5" cy="721.5" r="2.5" fill="white"/>
<circle cx="131.5" cy="721.5" r="2.5" fill="white"/>
<circle cx="151.5" cy="721.5" r="2.5" fill="white"/>
<circle cx="51.5" cy="741.5" r="2.5" fill="white"/>
<circle cx="71.5" cy="741.5" r="2.5" fill="white"/>
<circle cx="91.5" cy="741.5" r="2.5" fill="white"/>
<circle cx="111.5" cy="741.5" r="2.5" fill="white"/>
<circle cx="131.5" cy="741.5" r="2.5" fill="white"/>
<circle cx="151.5" cy="741.5" r="2.5" fill="white"/>
<circle cx="51.5" cy="761.5" r="2.5" fill="white"/>
<circle cx="71.5" cy="761.5" r="2.5" fill="white"/>
<circle cx="91.5" cy="761.5" r="2.5" fill="white"/>
<circle cx="111.5" cy="761.5" r="2.5" fill="white"/>
<circle cx="131.5" cy="761.5" r="2.5" fill="white"/>
<circle cx="151.5" cy="761.5" r="2.5" fill="white"/>
<circle opacity="0.7" cx="583.648" cy="791.754" r="83.8125" stroke="white" stroke-width="4"/>
<rect x="567.893" y="672.051" width="172.107" height="172.107" fill="#002A64"/>
<circle cx="583.601" cy="791.568" r="119.068" stroke="white" stroke-width="5"/>
<circle cx="583.405" cy="791.51" r="38.5066" fill="#0055CC"/>
<circle cx="671.797" cy="718.268" r="17.8776" fill="#0055CC"/>
<rect x="398" y="-7" width="32" height="136" rx="16" fill="url(#paint0_linear_1304_984)"/>
<rect x="338" y="-7" width="20" height="79" rx="10" fill="url(#paint1_linear_1304_984)"/>
<rect opacity="0.78" x="381" y="-80" width="34" height="170" rx="17" stroke="white" stroke-width="2"/>
</g>
<defs>
<linearGradient id="paint0_linear_1304_984" x1="414" y1="-7" x2="414" y2="129" gradientUnits="userSpaceOnUse">
<stop offset="0.124" stop-color="#0055CC" stop-opacity="0"/>
<stop offset="1" stop-color="#0055CC"/>
</linearGradient>
<linearGradient id="paint1_linear_1304_984" x1="348" y1="-7" x2="348" y2="72" gradientUnits="userSpaceOnUse">
<stop offset="0.124" stop-color="#0055CC" stop-opacity="0"/>
<stop offset="1" stop-color="#0055CC"/>
</linearGradient>
<clipPath id="clip0_1304_984">
<rect width="720" height="804" fill="white"/>
</clipPath>
</defs>
</svg>
