<svg width="97" height="101" viewBox="0 0 97 101" fill="none" xmlns="http://www.w3.org/2000/svg">
<g filter="url(#filter0_d_443_4819)">
<g filter="url(#filter1_d_443_4819)">
<path d="M7.57895 16.6824C5.60227 16.6824 4 18.2836 4 20.2588L7.57895 73.0118C7.57895 74.987 9.18122 76.5882 11.1579 76.5882H56.5077L65.2895 90L74.0713 76.5882H85.4211C87.3975 76.5882 89 74.987 89 73.0118L88.1053 17.5765C88.1053 15.6012 86.5028 14 84.5263 14L7.57895 16.6824Z" fill="#00A8CC"/>
</g>
<path d="M29.6908 41V40.856C30.2668 38.462 30.6808 37.13 31.2388 35.24C32.0848 32.36 33.4888 28.562 34.0468 27.5H37.8448C38.4208 28.562 39.8248 32.36 40.6708 35.24C41.2288 37.13 41.6428 38.462 42.2188 40.856V41H38.8348C38.6548 40.172 38.4208 39.128 38.1508 38.048H33.4888C33.2188 39.146 32.9668 40.172 32.7868 41H29.6908ZM35.8828 29.966C35.5228 30.812 34.8568 33.008 34.2088 35.366H37.4848C36.8908 33.008 36.2608 30.812 35.8828 29.966ZM46.6468 41.144C45.5128 41.144 44.2528 41 43.3348 40.784V38.192H43.4788C44.5228 38.39 45.6568 38.534 46.6468 38.534C47.1328 38.534 48.3928 38.534 48.3928 37.976C48.3928 37.562 48.1048 37.454 47.6188 37.346L46.0708 36.986C44.1628 36.554 43.3348 35.51 43.3348 34.178C43.3348 31.928 45.5128 31.01 48.2668 31.01C49.2388 31.01 50.3728 31.154 51.0748 31.298V33.89H50.9308C50.0848 33.764 49.0948 33.62 48.1948 33.62C47.6908 33.62 46.5748 33.62 46.5748 34.106C46.5748 34.538 47.0788 34.628 47.5468 34.736L48.8968 35.024C50.2648 35.312 51.6328 36.014 51.6328 37.904C51.6328 40.514 49.2388 41.144 46.6468 41.144ZM53.7399 41V27.5H56.8359V34.538H57.5379L60.3459 31.154H63.7299V31.298L60.0759 35.582L63.7299 40.856V41H60.2199L57.5379 37.058H56.8359V41H53.7399ZM31.2399 63V49.5H34.3359L37.9179 54.63L41.6439 49.5H44.7399V63H41.6439V54.36L38.2779 58.788H37.4319L34.3359 54.36V63H31.2399ZM51.7644 63.144C48.8664 63.144 46.8504 62.01 46.8504 59.13V57.24C46.8504 54.414 49.0284 53.01 51.8364 53.01C54.3024 53.01 56.2644 53.784 56.2644 56.25C56.2644 58.356 54.7344 59.13 52.6104 59.13H49.9464V59.202C49.9464 60.264 51.0084 60.462 52.0524 60.462C53.1144 60.462 54.2304 60.336 55.2924 60.048H55.4364V62.586C54.3024 63 52.6644 63.144 51.7644 63.144ZM49.9464 57.168V57.312H52.4124C53.0424 57.312 53.4564 57.096 53.4564 56.466C53.4564 55.62 52.6824 55.548 51.8364 55.548C50.6484 55.548 49.9464 55.962 49.9464 57.168ZM58.8778 58.5L58.6618 49.5H61.7578L61.5418 58.5H58.8778ZM58.6618 63V59.904H61.7578V63H58.6618Z" fill="white"/>
<path d="M82.9189 81V86.3418L79.1002 93H77L79.9594 86.9141H77V81H82.9189Z" fill="#002A64"/>
<path d="M93 81V86.3418L89.1814 93H87.0811L90.0406 86.9141H87.0811V81H93Z" fill="#002A64"/>
<path d="M14.0811 12V6.65819L17.8998 0H20L17.0406 6.08585H20V12H14.0811Z" fill="#002A64"/>
<path d="M4 12V6.65819L7.81862 0H9.91885L6.95943 6.08585H9.91885V12H4Z" fill="#002A64"/>
</g>
<defs>
<filter id="filter0_d_443_4819" x="0" y="0" width="97" height="101" filterUnits="userSpaceOnUse" color-interpolation-filters="sRGB">
<feFlood flood-opacity="0" result="BackgroundImageFix"/>
<feColorMatrix in="SourceAlpha" type="matrix" values="0 0 0 0 0 0 0 0 0 0 0 0 0 0 0 0 0 0 127 0" result="hardAlpha"/>
<feOffset dy="4"/>
<feGaussianBlur stdDeviation="2"/>
<feComposite in2="hardAlpha" operator="out"/>
<feColorMatrix type="matrix" values="0 0 0 0 0 0 0 0 0 0 0 0 0 0 0 0 0 0 0.15 0"/>
<feBlend mode="normal" in2="BackgroundImageFix" result="effect1_dropShadow_443_4819"/>
<feBlend mode="normal" in="SourceGraphic" in2="effect1_dropShadow_443_4819" result="shape"/>
</filter>
<filter id="filter1_d_443_4819" x="0" y="11" width="93" height="84" filterUnits="userSpaceOnUse" color-interpolation-filters="sRGB">
<feFlood flood-opacity="0" result="BackgroundImageFix"/>
<feColorMatrix in="SourceAlpha" type="matrix" values="0 0 0 0 0 0 0 0 0 0 0 0 0 0 0 0 0 0 127 0" result="hardAlpha"/>
<feOffset dy="1"/>
<feGaussianBlur stdDeviation="2"/>
<feComposite in2="hardAlpha" operator="out"/>
<feColorMatrix type="matrix" values="0 0 0 0 0 0 0 0 0 0 0 0 0 0 0 0 0 0 0.25 0"/>
<feBlend mode="normal" in2="BackgroundImageFix" result="effect1_dropShadow_443_4819"/>
<feBlend mode="normal" in="SourceGraphic" in2="effect1_dropShadow_443_4819" result="shape"/>
</filter>
</defs>
</svg>
